<?xml version="1.0" encoding="utf-8"?>
<!-- Generator: Adobe Illustrator 22.0.1, SVG Export Plug-In . SVG Version: 6.00 Build 0)  -->
<!DOCTYPE svg PUBLIC "-//W3C//DTD SVG 1.1//EN" "http://www.w3.org/Graphics/SVG/1.1/DTD/svg11.dtd">
<svg version="1.1" id="Layer_2" xmlns="http://www.w3.org/2000/svg" xmlns:xlink="http://www.w3.org/1999/xlink" x="0px" y="0px"
	 viewBox="0 0 1024 202.2" style="enable-background:new 0 0 1024 202.2;" xml:space="preserve">
<style type="text/css">
	.st0{fill-rule:evenodd;clip-rule:evenodd;fill:#FF6900;}
	.st1{fill:#FF6900;}
</style>
<g>
	<path class="st0" d="M376.1,58.4c-41.2,0-61,22-61,59.6v26.2c0,34,16.4,57.9,59.8,57.9c16.7,0,26.7-3.2,36.6-8.6
		c8.4-4.6,15.2-11,19.7-18.2l-15-15c-1.5-1.5-4.5-0.6-5.6,1c-7,11.7-15.5,18.6-35.5,18.6c-25.1,0-35.2-11.8-35.2-33V142h85.9
		c7.8,0,11.2-3.9,11.2-9.7v-16.2C437.1,83.2,419,58.4,376.1,58.4z M411.2,121.6l-71.1-0.1l-0.1-6.8c0-21.7,11-34.5,36-34.5
		s35.1,12.7,35.1,34.5V121.6z"/>
	<path class="st0" d="M779.4,58.4c-41.2,0-61,22-61,59.6v26.2c0,34,16.4,57.9,59.8,57.9c16.7,0,26.7-3.2,36.6-8.6
		c8.4-4.6,15.2-11,19.7-18.2l-15-15c-1.5-1.5-4.5-0.6-5.6,1c-7,11.7-15.5,18.6-35.5,18.6c-25.1,0-35.2-11.8-35.2-33V142h85.9
		c7.8,0,11.2-3.9,11.2-9.7v-16.2C840.5,83.2,822.3,58.4,779.4,58.4z M814.5,121.6l-71.1-0.1l-0.1-6.8c0-21.7,11-34.5,36-34.5
		c25.1,0,35.1,12.7,35.1,34.5V121.6z"/>
	<path class="st0" d="M293,61.7h-9.3c-8.1,0-10.2,1.5-12.2,7c0,0-37.9,90.3-38.8,97.3h-1.2c-1.2-7-39.4-97.3-39.4-97.3
		c-2-5.5-4.1-7-12.2-7h-9c-6.7,0-8.1,1.8-5.5,8.2l53.1,121.5c2,5,4.7,6.4,9.9,6.4h7.3c5.2,0,7.6-1.5,9.6-6.4l53.3-121.8
		C301.1,63.1,299.4,61.7,293,61.7z"/>
	<path class="st0" d="M538.9,58.2h-9.3c-25.6,0.6-42.4,4.9-53.2,9c-9,3.8-11,7.2-11,16.2v107.3c0,5.2,1.7,7,7,7h12.2
		c4.9,0,6.7-1.7,6.7-7V92.7c0-2.6,0.6-4.3,4.1-5.8c8.4-2.6,19.5-4.9,33.7-4.9h9.9c5.2,0,7-1.7,7-7v-9.9
		C545.8,60,544.1,58.2,538.9,58.2z"/>
	<path class="st0" d="M130.9,61.6h-12.2c-4.9,0-6.7,1.7-6.7,6.7l0.1,122.7c0,5,1.7,6.7,7,6.7h12.2c4.9,0,6.7-1.7,6.7-6.7l-0.1-122.7
		C137.9,63.2,136.2,61.6,130.9,61.6z"/>
	<path class="st0" d="M635.4,58.2c-18,0-29.8,4.6-38.2,7.2V48.6h0V26.2c0-3.5-2-8.3-4.5-10.8L578.8,1.7c-0.1-0.1-0.1-0.1-0.2-0.2
		l0,0v0c-0.8-0.7-1.8-1.2-2.9-1.2c-2.4,0-4.3,1.9-4.3,4.4c0,0.2,0,0.4,0.1,0.7c0,10.6-0.1,47.9-0.1,171.8c0,9.3,1.7,11.6,11,15.9
		c10.2,4.4,25.4,9,47.8,9c43.3,0,61.2-15.1,61.2-53.9v-38.9C691.3,73.3,676.1,58.2,635.4,58.2z M665.2,147.3c0,24.9-9.7,31-37.1,31
		c-11.9,0-19.6-2-26.9-4.6c-3.8-1.4-4.1-2.6-4.1-5.5V89.5c7-2.6,18.2-7.5,34.4-7.5c24.4,0,33.6,6.1,33.6,28.1V147.3z"/>
	<path class="st0" d="M986.8,25.5c0-3.5-2-8.3-4.5-10.8L968.8,1.2v0.1C968,0.5,966.9,0,965.7,0c-2.4,0-4.6,1.9-4.6,4.4c0,0,0,0,0,0
		h0L961,64.2c0,0-0.1,0-0.1,0v0.4c-7.8-2-19.9-6.4-37.9-6.4c-39.5,0-56.2,15.1-56.2,52.8v39.2c0,37.1,16.7,51.9,59.2,51.9
		c25,0,38.2-4.6,49.6-9c9.3-3.8,11.3-6.4,11.3-15.9V68h0V25.5z M961,168.2c0,3.2-0.3,4.1-3.8,5.5c-7.8,2.6-15.8,4.6-28.6,4.6
		c-25.3,0-35.6-5.8-35.6-29v-37.4c0-23.8,8.9-29.9,35-29.9c16.3,0,26.3,4.3,33,6.4V168.2z"/>
	<path class="st0" d="M73.6,58.2h-9.3c-25.6,0.6-42.4,4.9-53.2,9C2,71,0,74.5,0,83.4v107.3c0,5.2,1.7,7,7,7h12.2
		c4.9,0,6.7-1.7,6.7-7V92.7c0-2.6,0.6-4.3,4.1-5.8c8.4-2.6,19.5-4.9,33.7-4.9h9.9c5.2,0,7-1.7,7-7v-9.9C80.5,60,78.8,58.2,73.6,58.2
		z"/>
	<g>
		<path class="st1" d="M125.9,17.6h-1.5c-9.4,0-12.2,2.5-12.2,11.9v1.8c0,9.4,3.1,11.9,12.2,11.9h1.5c9.4,0,12.2-2.8,12.2-11.9v-1.8
			C138.1,20.2,135.3,17.6,125.9,17.6z"/>
	</g>
	<g>
		<path class="st1" d="M1012.1,0c6.6,0,11.9,5.3,11.9,12c0,6.8-5.3,12.1-11.9,12.1c-6.5,0-11.7-5.3-11.7-12.1
			C1000.4,5.3,1005.7,0,1012.1,0z M1012.1,22.3c5.6,0,10-4.5,10-10.3c0-5.7-4.3-10.3-10-10.3c-5.5,0-9.8,4.5-9.8,10.3
			C1002.4,17.8,1006.6,22.3,1012.1,22.3z M1008.2,5.6h4.6c2.3,0,3.9,1.5,3.9,3.8c0,1.9-1.2,3.1-2.4,3.4v0.1c0,0,0.1,0.2,0.4,0.7
			l2.5,4.9h-2.1l-2.6-5.2h-2.5v5.2h-1.9V5.6z M1012.5,11.8c1.4,0,2.3-0.9,2.3-2.4c0-1.5-0.9-2.3-2.3-2.3h-2.4v4.7H1012.5z"/>
	</g>
</g>
</svg>
