<?xml version="1.0" encoding="utf-8"?>
<!-- Generator: Adobe Illustrator 22.0.1, SVG Export Plug-In . SVG Version: 6.00 Build 0)  -->
<!DOCTYPE svg PUBLIC "-//W3C//DTD SVG 1.1//EN" "http://www.w3.org/Graphics/SVG/1.1/DTD/svg11.dtd">
<svg version="1.1" id="Layer_2" xmlns="http://www.w3.org/2000/svg" xmlns:xlink="http://www.w3.org/1999/xlink" x="0px" y="0px"
	 viewBox="0 0 1920 379.1" style="enable-background:new 0 0 1920 379.1;" xml:space="preserve">
<style type="text/css">
	.st0{fill-rule:evenodd;clip-rule:evenodd;fill:#FF6900;}
	.st1{fill:#FF6900;}
</style>
<g>
	<path class="st0" d="M705.1,109.6c-77.3,0-114.3,41.3-114.3,111.8v49.2c0,63.7,30.7,108.6,112.2,108.6c31.2,0,50.1-6,68.6-16.2
		c15.7-8.6,28.4-20.6,37-34.2l-28.1-28.1c-2.9-2.9-8.4-1.2-10.4,1.9c-13.1,21.9-29,34.9-66.6,34.9c-47,0-66-22.1-66-61.8v-9.5h161.1
		c14.6,0,21-7.3,21-18.3v-30.3C819.6,156.1,785.5,109.6,705.1,109.6z M770.9,228.1l-133.2-0.2l-0.2-12.8c0-40.7,20.6-64.6,67.6-64.6
		s65.8,23.9,65.8,64.6V228.1z"/>
	<path class="st0" d="M1461.4,109.6c-77.3,0-114.3,41.3-114.3,111.8v49.2c0,63.7,30.7,108.6,112.2,108.6c31.2,0,50.1-6,68.6-16.2
		c15.7-8.6,28.4-20.6,37-34.2l-28.1-28.1c-2.9-2.9-8.4-1.2-10.4,1.9c-13.1,21.9-29,34.9-66.6,34.9c-47,0-66-22.1-66-61.8v-9.5h161.1
		c14.6,0,21-7.3,21-18.3v-30.3C1575.9,156.1,1541.8,109.6,1461.4,109.6z M1527.2,228.1l-133.2-0.2l-0.2-12.8
		c0-40.7,20.6-64.6,67.6-64.6c47,0,65.8,23.9,65.8,64.6V228.1z"/>
	<path class="st0" d="M549.3,115.6h-17.4c-15.3,0-19.1,2.7-22.9,13.1c0,0-71.1,169.2-72.8,182.4H434
		c-2.2-13.1-73.8-182.4-73.8-182.4c-3.8-10.4-7.6-13.1-22.9-13.1h-16.9c-12.5,0-15.3,3.3-10.4,15.3l99.5,227.8
		c3.8,9.3,8.7,12,18.5,12h13.6c9.8,0,14.2-2.7,18-12l100-228.3C564.6,118.3,561.3,115.6,549.3,115.6z"/>
	<path class="st0" d="M1010.4,109.2h-17.4c-48,1.1-79.6,9.2-99.8,16.9c-16.9,7.1-20.7,13.6-20.7,30.4v201.2c0,9.8,3.3,13,13.1,13
		h22.9c9.3,0,12.5-3.3,12.5-13V173.9c0-4.9,1.1-8.2,7.6-10.9c15.8-4.9,36.5-9.2,63.2-9.2h18.5c9.8,0,13.1-3.3,13.1-13v-18.5
		C1023.4,112.4,1020.2,109.2,1010.4,109.2z"/>
	<path class="st0" d="M245.5,115.4h-22.9c-9.3,0-12.5,3.1-12.5,12.6l0.2,230.2c0,9.5,3.3,12.6,13.1,12.6h22.9
		c9.3,0,12.5-3.2,12.5-12.6L258.6,128C258.6,118.6,255.3,115.4,245.5,115.4z"/>
	<path class="st0" d="M1191.3,109.2c-33.8,0-55.9,8.7-71.7,13.6V91.1h0V49.2c0-6.5-3.8-15.6-8.4-20.2l-25.9-25.9
		c-0.1-0.1-0.2-0.2-0.3-0.3l-0.1-0.1v0c-1.5-1.3-3.4-2.2-5.5-2.2c-4.5,0-8.1,3.7-8.1,8.2c0,0.4,0,0.8,0.1,1.3
		c0,19.9-0.1,89.8-0.3,322.1c0,17.4,3.3,21.7,20.7,29.9c19.1,8.2,47.7,16.9,89.7,16.9c81.2,0,114.7-28.3,114.7-101.1v-72.9
		C1296.2,137.5,1267.6,109.2,1191.3,109.2z M1247.2,276.2c0,46.7-18.3,58.2-69.5,58.2c-22.3,0-36.8-3.8-50.4-8.7
		c-7.1-2.7-7.6-4.9-7.6-10.3V167.9c13.1-4.9,34.1-14.1,64.6-14.1c45.8,0,63,11.4,63,52.7V276.2z"/>
	<path class="st0" d="M1850.3,47.8c0-6.5-3.8-15.6-8.4-20.2l-25.4-25.4v0.1c-1.5-1.5-3.5-2.4-5.8-2.4c-4.5,0-8.6,3.7-8.6,8.2
		c0,0,0,0,0,0.1h0l-0.1,112.2c-0.1,0-0.1,0-0.2-0.1v0.8c-14.7-3.8-37.3-12-71.1-12c-74.1,0-105.5,28.3-105.5,98.9v73.5
		c0,69.6,31.3,97.3,110.9,97.3c46.9,0,71.7-8.7,92.9-16.9c17.4-7.1,21.3-12,21.3-29.9V127.4h0V47.8z M1801.8,315.3
		c0,6-0.5,7.6-7.1,10.3c-14.7,4.9-29.7,8.7-53.7,8.7c-47.4,0-66.8-10.9-66.8-54.4v-70.2c0-44.6,16.6-56,65.7-56
		c30.5,0,49.3,8.2,61.9,12V315.3z"/>
	<path class="st0" d="M137.9,109.2h-17.4c-48,1.1-79.6,9.2-99.8,16.9C3.8,133.1,0,139.6,0,156.5v201.2c0,9.8,3.3,13,13.1,13H36
		c9.3,0,12.5-3.3,12.5-13V173.9c0-4.9,1.1-8.2,7.6-10.9c15.8-4.9,36.5-9.2,63.2-9.2h18.5c9.8,0,13.1-3.3,13.1-13v-18.5
		C151,112.4,147.7,109.2,137.9,109.2z"/>
	<g>
		<path class="st1" d="M236,33h-2.9c-17.6,0-22.9,4.8-22.9,22.4v3.3c0,17.6,5.7,22.4,22.9,22.4h2.9c17.6,0,22.9-5.2,22.9-22.4v-3.3
			C258.9,37.8,253.6,33,236,33z"/>
	</g>
	<g>
		<path class="st1" d="M1897.7,0c12.4,0,22.3,10,22.3,22.6c0,12.7-9.9,22.6-22.3,22.6c-12.1,0-22-10-22-22.6
			C1875.8,10,1885.6,0,1897.7,0z M1897.7,41.9c10.6,0,18.7-8.4,18.7-19.3c0-10.8-8.1-19.2-18.7-19.2c-10.3,0-18.3,8.5-18.3,19.2
			C1879.4,33.5,1887.4,41.9,1897.7,41.9z M1890.4,10.4h8.6c4.3,0,7.3,2.9,7.3,7.2c0,3.6-2.3,5.8-4.5,6.4v0.1c0,0,0.3,0.3,0.8,1.4
			l4.7,9.1h-3.9l-4.9-9.8h-4.7v9.8h-3.5V10.4z M1898.4,22.1c2.6,0,4.3-1.7,4.3-4.5c0-2.7-1.7-4.3-4.3-4.3h-4.5v8.8H1898.4z"/>
	</g>
</g>
</svg>
