<?xml version="1.0" standalone="no"?>
<!DOCTYPE svg PUBLIC "-//W3C//DTD SVG 20010904//EN"
 "http://www.w3.org/TR/2001/REC-SVG-20010904/DTD/svg10.dtd">
<svg version="1.0" xmlns="http://www.w3.org/2000/svg"
 width="260.000000pt" height="260.000000pt" viewBox="0 0 260.000000 260.000000"
 preserveAspectRatio="xMidYMid meet">
<metadata>
Created by potrace 1.11, written by Peter Selinger 2001-2013
</metadata>
<g transform="translate(0.000000,260.000000) scale(0.100000,-0.100000)"
fill="#000000" stroke="none">
<path d="M1276 2203 c-8 -9 -73 -47 -151 -89 -27 -15 -52 -29 -55 -33 -3 -3
-23 -15 -45 -27 -44 -23 -83 -45 -163 -93 -29 -17 -55 -31 -57 -31 -3 0 -29
-16 -59 -35 -30 -19 -60 -35 -66 -35 -5 0 -10 -5 -10 -11 0 -5 -4 -8 -9 -4 -5
3 -13 0 -16 -5 -4 -6 -17 -15 -28 -20 -12 -6 -40 -21 -62 -35 -22 -14 -51 -29
-64 -35 -13 -6 -35 -19 -50 -29 -14 -10 -57 -35 -96 -56 -38 -21 -82 -46 -97
-57 -14 -10 -31 -18 -37 -18 -6 0 -11 -4 -11 -9 0 -5 -11 -12 -24 -15 -14 -3
-31 -12 -38 -19 -7 -7 -35 -23 -62 -37 -49 -25 -71 -56 -55 -76 5 -6 6 -14 3
-17 -9 -8 -8 -212 0 -225 3 -6 3 -13 -2 -16 -4 -2 -6 -21 -4 -40 3 -26 11 -39
31 -49 35 -18 75 -41 81 -47 5 -5 24 -16 103 -59 29 -16 76 -42 105 -60 29
-17 57 -31 62 -31 6 0 10 -3 10 -7 0 -5 10 -13 23 -19 47 -23 112 -59 117 -65
3 -3 20 -12 37 -20 18 -8 33 -17 33 -20 0 -4 8 -9 18 -13 9 -3 31 -14 47 -24
17 -10 50 -30 75 -44 25 -14 63 -35 85 -48 22 -12 45 -25 50 -30 6 -4 42 -24
80 -45 39 -21 72 -41 75 -44 3 -3 23 -15 45 -26 22 -11 42 -22 45 -25 3 -3 25
-16 50 -29 25 -14 48 -29 52 -35 4 -6 8 -7 8 -3 0 5 13 -1 28 -11 l28 -20 59
33 c33 19 79 44 103 56 23 12 42 26 42 31 0 4 6 8 13 8 7 0 34 13 59 29 25 16
49 27 52 24 3 -4 6 -2 6 4 0 6 13 16 30 22 17 5 30 15 30 22 0 7 3 10 6 6 4
-3 23 5 43 18 19 14 41 25 48 25 7 0 13 5 13 10 0 6 5 10 11 10 6 0 64 31 129
70 65 38 123 70 129 70 5 0 11 4 13 9 2 4 28 21 58 38 30 16 71 39 90 51 19
11 39 21 44 21 5 -1 12 3 15 8 6 8 17 15 100 60 25 14 51 29 56 33 6 5 37 23
70 41 33 18 63 36 66 41 3 4 5 90 5 189 -1 167 -3 182 -20 195 -11 8 -26 14
-33 14 -7 0 -13 5 -13 11 0 5 -4 8 -9 4 -5 -3 -12 -1 -16 5 -3 6 -25 20 -48
31 -23 12 -44 24 -47 28 -3 3 -21 14 -40 23 -37 19 -95 52 -173 99 -26 16 -50
29 -53 29 -3 0 -18 8 -32 18 -15 11 -52 32 -82 49 -90 50 -134 76 -152 91 -10
8 -18 12 -18 8 0 -4 -13 2 -29 13 -16 12 -34 21 -40 21 -6 0 -11 4 -11 9 0 5
-8 11 -17 14 -10 4 -43 21 -74 39 -88 51 -170 98 -214 122 -22 11 -42 23 -45
27 -11 12 -121 69 -133 69 -8 0 -17 -3 -21 -7z"/>
</g>
</svg>
